<svg xmlns="http://www.w3.org/2000/svg" viewBox="0 0 1280 720" role="img" aria-label="BTC trading chart">
  <rect width="1280" height="720" fill="#0c1718"/>
  <rect x="72" y="74" width="1136" height="572" rx="34" fill="#102426" stroke="#1d4748" stroke-width="4"/>
  <path d="M128 520h1024" stroke="#214044" stroke-width="3"/>
  <path d="M128 430h1024M128 340h1024M128 250h1024M128 160h1024" stroke="#183235" stroke-width="2"/>
  <path d="M132 468c58-24 92-8 139-55 44-45 80-83 132-54 62 34 91 118 159 93 71-27 80-160 150-183 62-20 94 74 151 55 54-18 70-98 133-104 63-6 99 72 150 52" fill="none" stroke="#56b0aa" stroke-width="18" stroke-linecap="round" stroke-linejoin="round"/>
  <path d="M132 468c58-24 92-8 139-55 44-45 80-83 132-54 62 34 91 118 159 93 71-27 80-160 150-183 62-20 94 74 151 55 54-18 70-98 133-104 63-6 99 72 150 52v248H132z" fill="#132121" opacity=".9"/>
  <text x="110" y="150" fill="#f1f1f1" font-family="Arial, sans-serif" font-size="72" font-weight="700">BTC TRADE</text>
  <text x="110" y="228" fill="#56b0aa" font-family="Arial, sans-serif" font-size="48" font-weight="700">ENTRY / RISK / PROFIT</text>
  <text x="900" y="600" fill="#f1f1f1" font-family="Arial, sans-serif" font-size="78" font-weight="700">+4.8%</text>
</svg>
